<svg width="372" height="88" viewBox="0 0 372 88" fill="none" xmlns="http://www.w3.org/2000/svg">
<g filter="url(#filter0_i_3192_60)">
<rect width="88" height="88" rx="21.3592" fill="#0765FF"/>
<g filter="url(#filter1_i_3192_60)">
<g clip-path="url(#clip0_3192_60)">
<rect x="3.41748" y="3.41748" width="81.165" height="81.165" rx="21.3592" fill="#0765FF"/>
<g filter="url(#filter2_d_3192_60)">
<circle cx="61.6826" cy="57.6497" r="9.92696" stroke="white" stroke-width="4.96348"/>
<circle cx="37.1755" cy="41.2081" r="20.1641" stroke="white" stroke-width="6.20435"/>
</g>
</g>
</g>
</g>
<path d="M110.132 41.7785C107.22 41.7785 104.654 41.1153 102.434 39.789C100.214 38.4627 98.4836 36.6174 97.2437 34.253C96.0039 31.8599 95.384 29.0919 95.384 25.9491C95.384 22.7774 96.0039 20.0094 97.2437 17.6451C98.4836 15.252 100.214 13.3922 102.434 12.0659C104.654 10.7396 107.22 10.0764 110.132 10.0764C113.073 10.0764 115.654 10.7396 117.874 12.0659C120.094 13.3634 121.824 15.2087 123.064 17.6019C124.304 19.9662 124.924 22.7486 124.924 25.9491C124.924 29.1207 124.289 31.9031 123.021 34.2963C121.781 36.6606 120.051 38.5059 117.831 39.8323C115.61 41.1298 113.044 41.7785 110.132 41.7785ZM110.132 35.291C111.776 35.291 113.188 34.9162 114.371 34.1665C115.553 33.388 116.461 32.3068 117.095 30.9228C117.759 29.51 118.09 27.8521 118.09 25.9491C118.09 24.0173 117.759 22.3594 117.095 20.9754C116.461 19.5625 115.553 18.4813 114.371 17.7316C113.188 16.9531 111.776 16.5639 110.132 16.5639C108.518 16.5639 107.105 16.9387 105.894 17.6884C104.712 18.438 103.789 19.5193 103.126 20.9321C102.491 22.3161 102.174 23.9884 102.174 25.9491C102.174 27.8809 102.491 29.5532 103.126 30.9661C103.789 32.3501 104.712 33.4169 105.894 34.1665C107.105 34.9162 108.518 35.291 110.132 35.291Z" fill="white"/>
<path d="M128.862 41V10.8549H139.459C142.947 10.8549 145.557 11.5902 147.287 13.0607C149.046 14.5023 149.925 16.7225 149.925 19.7211C149.925 22.7198 149.031 24.9976 147.244 26.5546C145.485 28.1116 142.89 28.8901 139.459 28.8901H135.609V41H128.862ZM135.609 22.8351H138.767C140.151 22.8351 141.217 22.6333 141.967 22.2296C142.746 21.8259 143.135 21.0186 143.135 19.8076C143.135 18.6543 142.774 17.8902 142.054 17.5154C141.362 17.1117 140.266 16.9099 138.767 16.9099H135.609V22.8351Z" fill="white"/>
<path d="M153.402 41V10.8549H173.642V16.9099H160.192V22.4459H172.994V28.5008H160.192V34.945H173.642V41H153.402Z" fill="white"/>
<path d="M178.194 41V10.8549H185.114L198.262 32.0906H196.489V10.8549H203.279V41H196.316L183.254 19.7211H184.984V41H178.194Z" fill="white"/>
<path d="M205.928 41L218.47 10.8549H223.444L235.943 41H228.547L220.979 20.9754L213.323 41H205.928ZM214.924 35.8965L217.043 29.8416H224.871L227.077 35.8965H214.924Z" fill="white"/>
<path d="M250.736 41.7785C247.824 41.7785 245.258 41.1153 243.038 39.789C240.818 38.4627 239.088 36.6174 237.848 34.253C236.608 31.8599 235.988 29.0775 235.988 25.9058C235.988 22.7342 236.608 19.9662 237.848 17.6019C239.088 15.2376 240.818 13.3922 243.038 12.0659C245.258 10.7396 247.824 10.0764 250.736 10.0764C254.052 10.0764 256.906 10.9126 259.3 12.5849C261.693 14.2284 263.408 16.5062 264.446 19.4184L258.045 21.7106C257.469 20.0959 256.546 18.8417 255.277 17.9479C254.038 17.0252 252.524 16.5639 250.736 16.5639C249.122 16.5639 247.709 16.9387 246.498 17.6884C245.316 18.438 244.393 19.5049 243.73 20.8889C243.095 22.2729 242.778 23.9452 242.778 25.9058C242.778 27.8665 243.095 29.5532 243.73 30.9661C244.393 32.3501 245.316 33.4169 246.498 34.1665C247.709 34.9162 249.122 35.291 250.736 35.291C252.524 35.291 254.038 34.8441 255.277 33.9503C256.546 33.0276 257.469 31.759 258.045 30.1443L264.446 32.4366C263.408 35.3199 261.693 37.5977 259.3 39.27C256.906 40.9423 254.052 41.7785 250.736 41.7785Z" fill="white"/>
<path d="M281.569 41.7785C278.656 41.7785 276.09 41.1153 273.87 39.789C271.65 38.4627 269.92 36.6174 268.68 34.253C267.44 31.8599 266.82 29.0775 266.82 25.9058C266.82 22.7342 267.44 19.9662 268.68 17.6019C269.92 15.2376 271.65 13.3922 273.87 12.0659C276.09 10.7396 278.656 10.0764 281.569 10.0764C284.884 10.0764 287.739 10.9126 290.132 12.5849C292.525 14.2284 294.241 16.5062 295.279 19.4184L288.878 21.7106C288.301 20.0959 287.378 18.8417 286.11 17.9479C284.87 17.0252 283.356 16.5639 281.569 16.5639C279.954 16.5639 278.541 16.9387 277.33 17.6884C276.148 18.438 275.225 19.5049 274.562 20.8889C273.928 22.2729 273.611 23.9452 273.611 25.9058C273.611 27.8665 273.928 29.5532 274.562 30.9661C275.225 32.3501 276.148 33.4169 277.33 34.1665C278.541 34.9162 279.954 35.291 281.569 35.291C283.356 35.291 284.87 34.8441 286.11 33.9503C287.378 33.0276 288.301 31.759 288.878 30.1443L295.279 32.4366C294.241 35.3199 292.525 37.5977 290.132 39.27C287.739 40.9423 284.884 41.7785 281.569 41.7785Z" fill="white"/>
<path d="M298.82 41V10.8549H319.061V16.9099H305.611V22.4459H318.413V28.5008H305.611V34.945H319.061V41H298.82Z" fill="white"/>
<path d="M334.08 41.6488C330.735 41.6488 327.996 40.7838 325.862 39.0538C323.728 37.3238 322.431 35.0171 321.97 32.1338L328.587 30.4903C328.904 32.2203 329.553 33.5178 330.533 34.3828C331.542 35.219 332.796 35.637 334.296 35.637C335.045 35.637 335.709 35.5217 336.285 35.291C336.891 35.0604 337.367 34.7144 337.713 34.253C338.059 33.7917 338.232 33.2439 338.232 32.6096C338.232 32.0329 338.059 31.5283 337.713 31.0958C337.367 30.6345 336.804 30.202 336.026 29.7983C335.247 29.3658 334.209 28.9045 332.912 28.4143C330.865 27.607 329.192 26.7564 327.895 25.8626C326.597 24.9399 325.646 23.8875 325.04 22.7054C324.435 21.5232 324.132 20.168 324.132 18.6399C324.132 16.9675 324.536 15.4971 325.343 14.2284C326.179 12.9309 327.333 11.9217 328.803 11.2009C330.302 10.4512 332.032 10.0764 333.993 10.0764C336.098 10.0764 337.958 10.5666 339.572 11.5469C341.216 12.4984 342.528 13.9545 343.508 15.9151L338.102 19.2021C337.554 18.193 336.905 17.4289 336.156 16.9099C335.435 16.3621 334.642 16.0881 333.777 16.0881C333.258 16.0881 332.782 16.1891 332.35 16.3909C331.917 16.5927 331.571 16.881 331.312 17.2559C331.052 17.6019 330.922 18.02 330.922 18.5101C330.922 19.0003 331.066 19.4616 331.355 19.8941C331.672 20.3266 332.234 20.7735 333.042 21.2349C333.849 21.6674 334.973 22.1575 336.415 22.7054C338.347 23.4262 339.933 24.2191 341.172 25.0841C342.441 25.9491 343.393 26.9582 344.027 28.1116C344.661 29.2361 344.978 30.5912 344.978 32.1771C344.978 34.0224 344.517 35.6659 343.594 37.1075C342.701 38.5204 341.432 39.6304 339.788 40.4378C338.174 41.2451 336.271 41.6488 334.08 41.6488Z" fill="white"/>
<path d="M359.294 41.6488C355.95 41.6488 353.211 40.7838 351.077 39.0538C348.943 37.3238 347.646 35.0171 347.185 32.1338L353.802 30.4903C354.119 32.2203 354.768 33.5178 355.748 34.3828C356.757 35.219 358.011 35.637 359.511 35.637C360.26 35.637 360.924 35.5217 361.5 35.291C362.106 35.0604 362.581 34.7144 362.927 34.253C363.273 33.7917 363.446 33.2439 363.446 32.6096C363.446 32.0329 363.273 31.5283 362.927 31.0958C362.581 30.6345 362.019 30.202 361.241 29.7983C360.462 29.3658 359.424 28.9045 358.127 28.4143C356.08 27.607 354.407 26.7564 353.11 25.8626C351.812 24.9399 350.861 23.8875 350.255 22.7054C349.65 21.5232 349.347 20.168 349.347 18.6399C349.347 16.9675 349.751 15.4971 350.558 14.2284C351.394 12.9309 352.548 11.9217 354.018 11.2009C355.517 10.4512 357.247 10.0764 359.208 10.0764C361.313 10.0764 363.173 10.5666 364.787 11.5469C366.431 12.4984 367.743 13.9545 368.723 15.9151L363.317 19.2021C362.769 18.193 362.12 17.4289 361.37 16.9099C360.65 16.3621 359.857 16.0881 358.992 16.0881C358.473 16.0881 357.997 16.1891 357.564 16.3909C357.132 16.5927 356.786 16.881 356.526 17.2559C356.267 17.6019 356.137 18.02 356.137 18.5101C356.137 19.0003 356.281 19.4616 356.57 19.8941C356.887 20.3266 357.449 20.7735 358.257 21.2349C359.064 21.6674 360.188 22.1575 361.63 22.7054C363.562 23.4262 365.148 24.2191 366.387 25.0841C367.656 25.9491 368.608 26.9582 369.242 28.1116C369.876 29.2361 370.193 30.5912 370.193 32.1771C370.193 34.0224 369.732 35.6659 368.809 37.1075C367.916 38.5204 366.647 39.6304 365.003 40.4378C363.389 41.2451 361.486 41.6488 359.294 41.6488Z" fill="white"/>
<path d="M110.132 78.7785C107.22 78.7785 104.654 78.1154 102.434 76.789C100.213 75.4627 98.4834 73.6174 97.2435 71.2531C96.0037 68.8599 95.3838 66.0775 95.3838 62.9058C95.3838 59.7342 96.0037 56.9662 97.2435 54.6019C98.4834 52.2376 100.213 50.3922 102.434 49.0659C104.654 47.7396 107.22 47.0764 110.132 47.0764C113.448 47.0764 116.302 47.9126 118.695 49.5849C121.089 51.2284 122.804 53.5062 123.842 56.4184L117.441 58.7106C116.865 57.096 115.942 55.8417 114.673 54.9479C113.433 54.0252 111.92 53.5639 110.132 53.5639C108.517 53.5639 107.104 53.9387 105.893 54.6884C104.711 55.438 103.789 56.5049 103.125 57.8889C102.491 59.2729 102.174 60.9452 102.174 62.9058C102.174 64.8665 102.491 66.5532 103.125 67.9661C103.789 69.3501 104.711 70.4169 105.893 71.1666C107.104 71.9162 108.517 72.291 110.132 72.291C111.92 72.291 113.433 71.8441 114.673 70.9503C115.942 70.0276 116.865 68.759 117.441 67.1443L123.842 69.4366C122.804 72.3199 121.089 74.5977 118.695 76.27C116.302 77.9424 113.448 78.7785 110.132 78.7785Z" fill="white"/>
<path d="M142.694 78.7785C139.782 78.7785 137.216 78.1154 134.996 76.789C132.776 75.4627 131.046 73.6174 129.806 71.2531C128.566 68.8599 127.946 66.0919 127.946 62.9491C127.946 59.7774 128.566 57.0095 129.806 54.6451C131.046 52.252 132.776 50.3922 134.996 49.0659C137.216 47.7396 139.782 47.0764 142.694 47.0764C145.635 47.0764 148.216 47.7396 150.436 49.0659C152.656 50.3634 154.386 52.2087 155.626 54.6019C156.866 56.9662 157.486 59.7486 157.486 62.9491C157.486 66.1207 156.851 68.9031 155.583 71.2963C154.343 73.6606 152.613 75.5059 150.393 76.8323C148.173 78.1298 145.606 78.7785 142.694 78.7785ZM142.694 72.291C144.338 72.291 145.751 71.9162 146.933 71.1666C148.115 70.3881 149.023 69.3068 149.658 67.9228C150.321 66.51 150.652 64.8521 150.652 62.9491C150.652 61.0173 150.321 59.3594 149.658 57.9754C149.023 56.5625 148.115 55.4813 146.933 54.7316C145.751 53.9531 144.338 53.5639 142.694 53.5639C141.08 53.5639 139.667 53.9387 138.456 54.6884C137.274 55.438 136.351 56.5193 135.688 57.9321C135.054 59.3161 134.736 60.9884 134.736 62.9491C134.736 64.8809 135.054 66.5532 135.688 67.9661C136.351 69.3501 137.274 70.4169 138.456 71.1666C139.667 71.9162 141.08 72.291 142.694 72.291Z" fill="white"/>
<path d="M163.155 78V47.8549H170.074L183.222 69.0906H181.449V47.8549H188.239V78H181.276L168.215 56.7211H169.945V78H163.155Z" fill="white"/>
<path d="M205.55 78.6488C202.205 78.6488 199.466 77.7838 197.332 76.0538C195.199 74.3238 193.901 72.0171 193.44 69.1338L200.057 67.4903C200.374 69.2203 201.023 70.5178 202.003 71.3828C203.012 72.219 204.267 72.637 205.766 72.637C206.516 72.637 207.179 72.5217 207.756 72.291C208.361 72.0604 208.837 71.7144 209.183 71.2531C209.529 70.7917 209.702 70.2439 209.702 69.6096C209.702 69.0329 209.529 68.5283 209.183 68.0958C208.837 67.6345 208.274 67.202 207.496 66.7983C206.718 66.3658 205.68 65.9045 204.382 65.4143C202.335 64.607 200.663 63.7564 199.365 62.8626C198.068 61.9399 197.116 60.8875 196.511 59.7054C195.905 58.5232 195.602 57.168 195.602 55.6399C195.602 53.9676 196.006 52.4971 196.813 51.2284C197.649 49.9309 198.803 48.9217 200.273 48.2009C201.773 47.4513 203.503 47.0764 205.463 47.0764C207.568 47.0764 209.428 47.5666 211.042 48.5469C212.686 49.4984 213.998 50.9545 214.978 52.9151L209.572 56.2021C209.024 55.193 208.375 54.4289 207.626 53.9099C206.905 53.3621 206.112 53.0881 205.247 53.0881C204.728 53.0881 204.252 53.1891 203.82 53.3909C203.387 53.5927 203.041 53.8811 202.782 54.2559C202.522 54.6019 202.393 55.02 202.393 55.5101C202.393 56.0003 202.537 56.4616 202.825 56.8941C203.142 57.3266 203.704 57.7735 204.512 58.2349C205.319 58.6674 206.444 59.1575 207.885 59.7054C209.817 60.4262 211.403 61.2191 212.643 62.0841C213.911 62.9491 214.863 63.9583 215.497 65.1116C216.132 66.2361 216.449 67.5912 216.449 69.1771C216.449 71.0224 215.987 72.6659 215.065 74.1075C214.171 75.5204 212.902 76.6304 211.259 77.4378C209.644 78.2451 207.741 78.6488 205.55 78.6488Z" fill="white"/>
<path d="M233.706 78.7785C229.756 78.7785 226.771 77.8126 224.753 75.8808C222.764 73.949 221.769 71.0224 221.769 67.1011V47.8549H228.559V66.3226C228.559 67.7066 228.674 68.8599 228.905 69.7826C229.164 70.7052 229.669 71.3972 230.419 71.8585C231.168 72.3199 232.264 72.5505 233.706 72.5505C235.147 72.5505 236.229 72.3199 236.949 71.8585C237.699 71.3972 238.204 70.7196 238.463 69.8258C238.723 68.9031 238.852 67.7642 238.852 66.4091V47.8549H245.643V66.8848C245.643 70.8926 244.633 73.8769 242.615 75.8375C240.626 77.7982 237.656 78.7785 233.706 78.7785Z" fill="white"/>
<path d="M252.225 78V47.8549H259.016V71.945H271.385V78H252.225Z" fill="white"/>
<path d="M277.974 78V53.9099H269.151V47.8549H293.63V53.9099H284.851V78H277.974Z" fill="white"/>
<path d="M298.259 78V47.8549H305.05V78H298.259Z" fill="white"/>
<path d="M311.9 78V47.8549H318.82L331.968 69.0906H330.195V47.8549H336.985V78H330.022L316.96 56.7211H318.69V78H311.9Z" fill="white"/>
<path d="M356.977 78.7785C354.209 78.7785 351.743 78.1154 349.581 76.789C347.447 75.4627 345.761 73.6174 344.521 71.2531C343.281 68.8599 342.661 66.0775 342.661 62.9058C342.661 59.7342 343.281 56.9662 344.521 54.6019C345.761 52.2376 347.491 50.3922 349.711 49.0659C351.931 47.7396 354.497 47.0764 357.409 47.0764C360.725 47.0764 363.58 47.9126 365.973 49.5849C368.366 51.2284 370.081 53.5062 371.119 56.4184L364.718 58.7106C364.142 57.096 363.219 55.8417 361.95 54.9479C360.711 54.0252 359.197 53.5639 357.409 53.5639C355.795 53.5639 354.382 53.9387 353.171 54.6884C351.989 55.438 351.066 56.5049 350.403 57.8889C349.768 59.2729 349.451 60.9452 349.451 62.9058C349.451 64.8665 349.768 66.5532 350.403 67.9661C351.066 69.3501 351.989 70.4169 353.171 71.1666C354.382 71.9162 355.795 72.291 357.409 72.291C358.274 72.291 359.154 72.1757 360.047 71.945C360.941 71.6856 361.763 71.2675 362.513 70.6908C363.291 70.0853 363.911 69.2347 364.372 68.1391C364.863 67.0434 365.108 65.6594 365.108 63.9871V62.5598L366.621 67.3173H357.842V61.2624H371.119V78H365.151L364.199 73.7615L365.367 74.713C364.819 75.5492 364.127 76.2844 363.291 76.9188C362.484 77.5243 361.547 77.9856 360.48 78.3028C359.442 78.6199 358.274 78.7785 356.977 78.7785Z" fill="white"/>
<defs>
<filter id="filter0_i_3192_60" x="0" y="0" width="88" height="88" filterUnits="userSpaceOnUse" color-interpolation-filters="sRGB">
<feFlood flood-opacity="0" result="BackgroundImageFix"/>
<feBlend mode="normal" in="SourceGraphic" in2="BackgroundImageFix" result="shape"/>
<feColorMatrix in="SourceAlpha" type="matrix" values="0 0 0 0 0 0 0 0 0 0 0 0 0 0 0 0 0 0 127 0" result="hardAlpha"/>
<feMorphology radius="1.70874" operator="erode" in="SourceAlpha" result="effect1_innerShadow_3192_60"/>
<feOffset/>
<feGaussianBlur stdDeviation="1.70874"/>
<feComposite in2="hardAlpha" operator="arithmetic" k2="-1" k3="1"/>
<feColorMatrix type="matrix" values="0 0 0 0 0.0477113 0 0 0 0 0 0 0 0 0 0.408954 0 0 0 0.4 0"/>
<feBlend mode="normal" in2="shape" result="effect1_innerShadow_3192_60"/>
</filter>
<filter id="filter1_i_3192_60" x="3.41748" y="3.41748" width="81.165" height="81.165" filterUnits="userSpaceOnUse" color-interpolation-filters="sRGB">
<feFlood flood-opacity="0" result="BackgroundImageFix"/>
<feBlend mode="normal" in="SourceGraphic" in2="BackgroundImageFix" result="shape"/>
<feColorMatrix in="SourceAlpha" type="matrix" values="0 0 0 0 0 0 0 0 0 0 0 0 0 0 0 0 0 0 127 0" result="hardAlpha"/>
<feMorphology radius="1.70874" operator="erode" in="SourceAlpha" result="effect1_innerShadow_3192_60"/>
<feOffset/>
<feGaussianBlur stdDeviation="1.70874"/>
<feComposite in2="hardAlpha" operator="arithmetic" k2="-1" k3="1"/>
<feColorMatrix type="matrix" values="0 0 0 0 0.0477113 0 0 0 0 0 0 0 0 0 0.408954 0 0 0 0.4 0"/>
<feBlend mode="normal" in2="shape" result="effect1_innerShadow_3192_60"/>
</filter>
<filter id="filter2_d_3192_60" x="8.78297" y="12.8156" width="77.2695" height="69.204" filterUnits="userSpaceOnUse" color-interpolation-filters="sRGB">
<feFlood flood-opacity="0" result="BackgroundImageFix"/>
<feColorMatrix in="SourceAlpha" type="matrix" values="0 0 0 0 0 0 0 0 0 0 0 0 0 0 0 0 0 0 127 0" result="hardAlpha"/>
<feOffset dx="3.41748" dy="3.41748"/>
<feGaussianBlur stdDeviation="4.27184"/>
<feComposite in2="hardAlpha" operator="out"/>
<feColorMatrix type="matrix" values="0 0 0 0 0 0 0 0 0 0 0 0 0 0 0 0 0 0 0.25 0"/>
<feBlend mode="normal" in2="BackgroundImageFix" result="effect1_dropShadow_3192_60"/>
<feBlend mode="normal" in="SourceGraphic" in2="effect1_dropShadow_3192_60" result="shape"/>
</filter>
<clipPath id="clip0_3192_60">
<rect x="3.41748" y="3.41748" width="81.165" height="81.165" rx="21.3592" fill="white"/>
</clipPath>
</defs>
</svg>
